<svg id="Layer_1" data-name="Layer 1" xmlns="http://www.w3.org/2000/svg" xmlns:xlink="http://www.w3.org/1999/xlink" viewBox="0 0 1220.07 324.09"><defs><style>.cls-1{fill:url(#radial-gradient);}.cls-2{fill:url(#linear-gradient);}.cls-3{fill:url(#linear-gradient-2);}.cls-4{fill:url(#linear-gradient-3);}.cls-5{fill:url(#linear-gradient-4);}.cls-6{fill:#c22939;}</style><radialGradient id="radial-gradient" cx="547.06" cy="204.86" r="501.43" gradientUnits="userSpaceOnUse"><stop offset="0" stop-color="#c22939"/><stop offset="0.3" stop-color="#ad304c"/><stop offset="0.54" stop-color="#923660"/><stop offset="0.72" stop-color="#773a72"/><stop offset="1" stop-color="#191956"/></radialGradient><linearGradient id="linear-gradient" x1="32.7" y1="243.86" x2="381.18" y2="314.12" gradientUnits="userSpaceOnUse"><stop offset="0" stop-color="#191956"/><stop offset="0.28" stop-color="#773a72"/><stop offset="0.46" stop-color="#913660"/><stop offset="0.7" stop-color="#ac304c"/><stop offset="1" stop-color="#c12939"/></linearGradient><linearGradient id="linear-gradient-2" x1="37.31" y1="221.01" x2="385.79" y2="291.28" xlink:href="#linear-gradient"/><linearGradient id="linear-gradient-3" x1="40.7" y1="204.17" x2="389.18" y2="274.44" xlink:href="#linear-gradient"/><linearGradient id="linear-gradient-4" x1="42.8" y1="193.75" x2="391.28" y2="264.02" xlink:href="#linear-gradient"/></defs><rect class="cls-1" x="128.45" y="206.75" width="308.64" height="12.72"/><rect class="cls-1" x="121.46" y="104.25" width="321.42" height="12.72"/><path class="cls-1" d="M1230.48,428.66H1078.72c-32.87,0-48.84-14.69-48.84-44.89s16-44.89,48.84-44.89h208.45V326.16H1078.72c-37.42,0-59.07,18-61.61,50.88-17.86-32.89-53.05-50.88-102.31-50.88H717.59V518L624.4,326.16H612.45L512,533H89.67V326.16h-13V546H520.08l98.49-202.64L716.76,546h198c73.52,0,115.69-40.06,115.69-109.92,0-3.93-.14-7.76-.4-11.51,10.28,11.17,26.51,16.81,48.63,16.81h151.76c34.41,0,49.75,14.12,49.75,45.8s-15.72,45.79-51,45.79H1021.72v13h207.54c42.26,0,63.69-19.79,63.69-58.82C1293,446.7,1273.68,428.66,1230.48,428.66ZM914.8,533H730.62V338.88H914.8c66.57,0,101.76,33.62,101.76,97.2C1016.56,499.47,981.37,533,914.8,533Z" transform="translate(-72.88 -221.91)"/><path class="cls-2" d="M113.12,222h34.76l40.23,75H155.19l-5.91-12.84H111.72L105.81,297H72.88Zm7.08,43.86h20.59l-10.26-22.15Z" transform="translate(-72.88 -221.91)"/><path class="cls-3" d="M262.62,222A28.31,28.31,0,0,1,291,250.31a27.38,27.38,0,0,1-4.52,15.35,28.08,28.08,0,0,1-11.83,10.26L291,297H259.82l-14.11-18.3H219.59V297H190.35V222Zm-43,21.92v12.78h35.66a6.38,6.38,0,0,0,6.42-6.36,6.39,6.39,0,0,0-6.42-6.42Z" transform="translate(-72.88 -221.91)"/><path class="cls-4" d="M329.25,221.91v75H300v-75Z" transform="translate(-72.88 -221.91)"/><path class="cls-5" d="M371.71,222h34.77l40.23,75H413.79l-5.92-12.84H370.32L364.4,297H331.48Zm7.09,43.86h20.59l-10.27-22.15Z" transform="translate(-72.88 -221.91)"/><path class="cls-6" d="M618.42,445.88a24.81,24.81,0,1,0,17.76,7.27A24.12,24.12,0,0,0,618.42,445.88Z" transform="translate(-72.88 -221.91)"/></svg>